<svg width="15" height="15" viewBox="0 0 15 15" fill="none" xmlns="http://www.w3.org/2000/svg">
<g clip-path="url(#clip0_1545_13047)">
<path d="M9.60729 13.7499C10.2231 14.1472 10.957 14.3204 11.6854 14.2402C12.4139 14.1601 13.0925 13.8316 13.6073 13.3099L14.0573 12.8699C14.2546 12.6682 14.365 12.3972 14.365 12.1149C14.365 11.8327 14.2546 11.5617 14.0573 11.3599L12.1473 9.46994C11.9472 9.27329 11.6778 9.1631 11.3973 9.1631C11.1167 9.1631 10.8474 9.27329 10.6473 9.46994V9.46994C10.4455 9.66723 10.1745 9.77769 9.89229 9.77769C9.61008 9.77769 9.33908 9.66723 9.13729 9.46994L6.13729 6.46994C6.03721 6.37132 5.95774 6.25378 5.90349 6.12417C5.84925 5.99456 5.82131 5.85545 5.82131 5.71494C5.82131 5.57444 5.84925 5.43533 5.90349 5.30572C5.95774 5.1761 6.03721 5.05857 6.13729 4.95994V4.95994C6.33394 4.75984 6.44414 4.4905 6.44414 4.20994C6.44414 3.92938 6.33394 3.66005 6.13729 3.45994L4.23729 1.55994C4.03549 1.36266 3.7645 1.2522 3.48229 1.2522C3.20008 1.2522 2.92908 1.36266 2.72729 1.55994L2.28729 2.00994C1.76563 2.52469 1.43712 3.20335 1.35699 3.93181C1.27686 4.66028 1.45 5.39412 1.84729 6.00994C3.91733 9.06068 6.55123 11.6878 9.60729 13.7499V13.7499Z" stroke="#000001" stroke-linecap="round" stroke-linejoin="round"/>
</g>
<defs>
<clipPath id="clip0_1545_13047">
<rect width="14" height="14" fill="white" transform="translate(0.84729 0.75)"/>
</clipPath>
</defs>
</svg>
